<svg width="18" height="18" viewBox="0 0 18 18" fill="none" xmlns="http://www.w3.org/2000/svg">
    <path d="M7.71667 12.9167L14.1792 6.27047L12.8958 4.95064L7.71667 10.2771L5.10417 7.59029L3.82083 8.91012L7.71667 12.9167ZM2.58333 17.4419C2.07917 17.4419 1.64742 17.2571 1.28808 16.8875C0.928751 16.518 0.74939 16.0743 0.750002 15.5564V2.35812C0.750002 1.83962 0.929668 1.39559 1.289 1.02604C1.64833 0.656491 2.07978 0.472029 2.58333 0.472658H15.4167C15.9208 0.472658 16.3526 0.657434 16.7119 1.02698C17.0713 1.39654 17.2506 1.84025 17.25 2.35812V15.5564C17.25 16.0749 17.0703 16.5189 16.711 16.8885C16.3517 17.258 15.9202 17.4425 15.4167 17.4419H2.58333Z" fill="#3C3C43" fill-opacity="0.6"/>
</svg>
