<svg width="20" height="20" viewBox="0 0 20 20" fill="none" xmlns="http://www.w3.org/2000/svg">
    <path d="M3.5988 0C2.64567 0 1.82692 0.839844 1.63942 2.00781L0.0394235 12.0078C-0.207452 13.5547 0.736298 15 1.9988 15H8.78005V17.5H6.78005C6.22692 17.5 5.78005 18.0586 5.78005 18.75C5.78005 19.4414 6.22692 20 6.78005 20H12.78C13.3332 20 13.78 19.4414 13.78 18.75C13.78 18.0586 13.3332 17.5 12.78 17.5H10.78V15H17.5613C18.8238 15 19.7707 13.5586 19.5238 12.0078L17.9238 2.00781C17.7332 0.839844 16.9144 0 15.9613 0H3.5988ZM7.93317 2.5H11.6269L11.9519 6.5625H7.60817L7.93317 2.5ZM6.10192 6.5625H2.9488L3.5988 2.5H6.4238L6.10192 6.5625ZM2.6488 8.4375H5.95192L5.62692 12.5H1.9988L2.6488 8.4375ZM7.45817 8.4375H12.1019L12.4269 12.5H7.13317L7.45817 8.4375ZM13.6082 8.4375H16.9113L17.5613 12.5H13.9363L13.6082 8.4375ZM16.6082 6.5625H13.4582L13.1332 2.5H15.9582L16.9394 2.25391L15.9613 2.5L16.6113 6.5625H16.6082Z" fill="#1CA953"/>
</svg>
