<svg width="14" height="20" viewBox="0 0 14 20" fill="none" xmlns="http://www.w3.org/2000/svg">
    <path d="M8.20976 1.25002L6.79947 8.65973L11.9085 8.67691L4.95416 18.7219L6.36447 10.57L1.25572 10.5522L8.20976 1.25002ZM8.21072 3.90632e-05C8.17697 3.90632e-05 8.14324 0.00126953 8.11011 0.00375C7.88949 0.021582 7.74322 0.095332 7.5698 0.211895C7.47215 0.277 7.38411 0.355472 7.30824 0.44502C7.28545 0.471896 7.26396 0.499844 7.24384 0.52877L0.239783 9.79846C-0.0367796 10.1775 -0.0774046 10.6779 0.135095 11.096C0.347283 11.5141 0.776345 11.7791 1.24666 11.7825L4.85478 11.8088L3.72041 18.4922C3.6126 19.0666 3.91885 19.6391 4.45791 19.8697C4.61457 19.9371 4.78331 19.9717 4.95383 19.9716C5.34664 19.9716 5.66945 19.7879 5.91166 19.456L12.9245 9.41096C13.201 9.03188 13.2414 8.53094 13.0292 8.11344C12.817 7.69531 12.3879 7.43029 11.9176 7.42688L8.30947 7.42063L9.43166 1.54406C9.45544 1.44785 9.46741 1.3491 9.4673 1.25C9.4673 0.57375 8.92884 0.0225 8.25509 0.000625C8.24011 0 8.22541 0 8.21074 0L8.21072 3.90632e-05Z" fill="#1CA953"/>
</svg>
