<svg width="16" height="16" viewBox="0 0 16 16" fill="none" xmlns="http://www.w3.org/2000/svg">
    <path d="M6.83334 11.1796L12.7083 5.30457L11.5417 4.1379L6.83334 8.84623L4.45834 6.47123L3.29167 7.6379L6.83334 11.1796ZM2.16667 15.1796C1.70833 15.1796 1.31583 15.0162 0.989168 14.6896C0.662501 14.3629 0.499446 13.9707 0.500001 13.5129V1.84623C0.500001 1.3879 0.663335 0.9954 0.990001 0.668733C1.31667 0.342067 1.70889 0.179011 2.16667 0.179567H13.8333C14.2917 0.179567 14.6842 0.3429 15.0108 0.669567C15.3375 0.996234 15.5006 1.38846 15.5 1.84623V13.5129C15.5 13.9712 15.3367 14.3637 15.01 14.6904C14.6833 15.0171 14.2911 15.1801 13.8333 15.1796H2.16667Z" fill="#1CA953"/>
</svg>
