<svg width="60" height="59" viewBox="0 0 60 59" fill="none" xmlns="http://www.w3.org/2000/svg">
    <ellipse cx="30" cy="29.8558" rx="30" ry="29" fill="#FFE5D4"/>
    <g clip-path="url(#clip0_808_3202)">
        <path d="M33.3651 23.58H38.4085V37.9375H37.8235V34.3266H37.4793V37.9375H37.2376V35.8366H36.8943V37.9366H36.6526V34.57H36.3085V37.9366H36.0676V35.23H35.7226V37.9383H35.4476V35.8375H35.1385V37.9375H34.8626V34.7783H34.5185V37.9383H34.2776V34.3275H33.9326V37.9383H33.3485C33.3651 33.1633 33.3651 28.3908 33.3651 23.5808V23.58ZM27.496 29.9333H32.5043V37.9375H31.9543V36.0791H31.6093V37.9375H31.3693V35.0208H31.0243V37.9375H30.7835V35.0208H30.4393V37.9375H30.1643V35.6291H29.8543V37.9375H29.5785V35.6291H29.2343V37.9375H28.9935V35.4383H28.6485V37.9383H28.4076V34.7775H28.0643V37.9383H27.4785C27.4951 35.6991 27.4951 32.14 27.4951 29.9341L27.496 29.9333ZM26.0668 34.3266H25.7218V37.9016H25.4818V36.2533H25.1368V37.9033H24.8618V35.5933H24.5518V37.9016H24.2768V34.535H23.9318V37.9016H23.6918V36.045H23.3468V37.9025H23.106V35.1941H22.761V37.9025H22.5201V34.7775H22.1768V37.9025H21.5918V33.1966H26.601V37.9016H26.051C26.0676 36.7391 26.0676 35.5408 26.0676 34.3258L26.0668 34.3266ZM31.041 38.91H31.3501V43.58H31.041V38.91ZM34.5518 38.91H34.8268V43.51H34.5518V38.91ZM28.3551 43.4066H28.0801V38.9083H28.3551V43.4066ZM34.2418 38.9091V43.4066H33.9668V38.9083H34.2418V38.9091ZM30.4551 38.9091H30.7301V43.2675H30.4551V38.9091ZM35.7401 38.9091H36.0151V43.2675H35.7401V38.9091ZM27.4951 38.9091H27.7701V42.99H27.4951V38.9083V38.9091ZM36.6001 42.955H36.3251V38.9083H36.6001V42.955ZM28.9585 42.92H28.6835V38.8925H28.9585V42.92ZM32.5035 42.885H32.2285V38.8933H32.5035V42.885ZM29.5776 42.5733H29.2676V38.8925H29.5776V42.5733ZM37.7876 42.7466H37.5126V38.8925H37.7876V42.7466ZM30.1285 42.5733H29.8535V38.8925H30.1285V42.5733ZM33.3643 38.9091H33.6401V42.59H33.3651L33.3643 38.9091ZM25.1543 42.295V38.8933H25.4635V42.2958L25.1543 42.295ZM35.1376 42.26V38.8933H35.4468V42.2608L35.1376 42.26ZM24.0001 38.91H24.2751V42.4516H24.0001V38.9083V38.91ZM38.0968 38.91H38.4068V42.2433H38.0968V38.9083V38.91ZM25.7585 42.2591V38.8925H26.0335V42.26L25.7585 42.2591ZM24.5701 42.2241V38.8925H24.8451V42.2258H24.5701V42.2241ZM37.2051 42.2241H36.9293V38.8925H37.2043V42.2258L37.2051 42.2241ZM23.0718 42.1908H22.7968V38.9266H23.0718V42.1908ZM22.4876 41.9991H22.1776V38.9083H22.4876V41.9991ZM31.6268 38.9083H31.9368V41.9291H31.6268V38.9083ZM26.6518 42.0691H26.3768V38.9083H26.6518V42.0691ZM21.6443 38.9075H21.9193V41.8941H21.6443V38.9075ZM23.4176 38.9075H23.6926V41.8941H23.4168L23.4176 38.9075Z" fill="#FF3A29"/>
    </g>
    <defs>
        <clipPath id="clip0_808_3202">
            <rect width="20" height="20" fill="white" transform="translate(20 23.58)"/>
        </clipPath>
    </defs>
</svg>
