<svg width="22" height="22" viewBox="0 0 22 22" fill="none" xmlns="http://www.w3.org/2000/svg">
    <path d="M11 22C9.47833 22 8.04833 21.7111 6.71 21.1332C5.37167 20.5553 4.2075 19.7718 3.2175 18.7825C2.2275 17.7925 1.44393 16.6283 0.8668 15.29C0.289667 13.9517 0.000733333 12.5217 0 11C0 9.47833 0.288933 8.04833 0.8668 6.71C1.44467 5.37167 2.22823 4.2075 3.2175 3.2175C4.2075 2.2275 5.37167 1.44393 6.71 0.8668C8.04833 0.289667 9.47833 0.000733333 11 0C12.5217 0 13.9517 0.288933 15.29 0.8668C16.6283 1.44467 17.7925 2.22823 18.7825 3.2175C19.7725 4.2075 20.5564 5.37167 21.1343 6.71C21.7122 8.04833 22.0007 9.47833 22 11C22 12.5217 21.7111 13.9517 21.1332 15.29C20.5553 16.6283 19.7718 17.7925 18.7825 18.7825C17.7925 19.7725 16.6283 20.5564 15.29 21.1343C13.9517 21.7122 12.5217 22.0007 11 22ZM13.2 16.5C13.5117 16.5 13.7731 16.3944 13.9843 16.1832C14.1955 15.972 14.3007 15.7109 14.3 15.4C14.3 15.0883 14.1944 14.8269 13.9832 14.6157C13.772 14.4045 13.5109 14.2993 13.2 14.3H9.9V12.1H12.1C12.705 12.1 13.2231 11.8844 13.6543 11.4532C14.0855 11.022 14.3007 10.5043 14.3 9.9V7.7C14.3 7.095 14.0844 6.5769 13.6532 6.1457C13.222 5.7145 12.7043 5.49927 12.1 5.5H8.8C8.48833 5.5 8.2269 5.6056 8.0157 5.8168C7.8045 6.028 7.69927 6.28907 7.7 6.6C7.7 6.91167 7.8056 7.1731 8.0168 7.3843C8.228 7.5955 8.48907 7.70073 8.8 7.7H12.1V9.9H9.9C9.295 9.9 8.7769 10.1156 8.3457 10.5468C7.9145 10.978 7.69927 11.4957 7.7 12.1V15.4C7.7 15.7117 7.8056 15.9731 8.0168 16.1843C8.228 16.3955 8.48907 16.5007 8.8 16.5H13.2Z" fill="#00D95F"/>
</svg>
