<svg width="22" height="22" viewBox="0 0 22 22" fill="none" xmlns="http://www.w3.org/2000/svg">
    <path d="M11 22C9.47833 22 8.04833 21.7111 6.71 21.1332C5.37167 20.5553 4.2075 19.7718 3.2175 18.7825C2.2275 17.7925 1.44393 16.6283 0.8668 15.29C0.289667 13.9517 0.000733333 12.5217 0 11C0 9.47833 0.288933 8.04833 0.8668 6.71C1.44467 5.37167 2.22823 4.2075 3.2175 3.2175C4.2075 2.2275 5.37167 1.44393 6.71 0.8668C8.04833 0.289667 9.47833 0.000733333 11 0C12.5217 0 13.9517 0.288933 15.29 0.8668C16.6283 1.44467 17.7925 2.22823 18.7825 3.2175C19.7725 4.2075 20.5564 5.37167 21.1343 6.71C21.7122 8.04833 22.0007 9.47833 22 11C22 12.5217 21.7111 13.9517 21.1332 15.29C20.5553 16.6283 19.7718 17.7925 18.7825 18.7825C17.7925 19.7725 16.6283 20.5564 15.29 21.1343C13.9517 21.7122 12.5217 22.0007 11 22ZM7.7 16.5H12.1C12.705 16.5 13.2231 16.2844 13.6543 15.8532C14.0855 15.422 14.3007 14.9043 14.3 14.3V12.65C14.3 12.1733 14.1442 11.7792 13.8325 11.4675C13.5208 11.1558 13.1267 11 12.65 11C13.1267 11 13.5208 10.8442 13.8325 10.5325C14.1442 10.2208 14.3 9.82667 14.3 9.35V7.7C14.3 7.095 14.0844 6.5769 13.6532 6.1457C13.222 5.7145 12.7043 5.49927 12.1 5.5H7.7V7.7H12.1V9.9H9.9V12.1H12.1V14.3H7.7V16.5Z" fill="#00D95F"/>
</svg>
