<svg width="60" height="59" viewBox="0 0 60 59" fill="none" xmlns="http://www.w3.org/2000/svg">
    <ellipse cx="30" cy="29.9554" rx="30" ry="29" fill="#E1FBD6"/>
    <g clip-path="url(#clip0_808_3188)">
        <path d="M36.443 29.3653C39.3002 33.3939 37.1144 38.0082 36.0573 39.8082C35.9023 40.06 35.6941 40.2748 35.4473 40.4377C35.2006 40.6005 34.9212 40.7075 34.6287 40.751C32.5573 41.1082 27.4002 41.5082 24.6287 37.4796C21.9002 33.6796 22.0144 26.9939 22.2573 23.8082C22.2669 23.5708 22.3327 23.3392 22.4493 23.1322C22.5659 22.9253 22.73 22.749 22.9281 22.6179C23.1262 22.4868 23.3526 22.4046 23.5886 22.378C23.8247 22.3515 24.0636 22.3814 24.2859 22.4653C27.3573 23.351 33.7573 25.5653 36.443 29.3653Z" stroke="#1CA953" stroke-linecap="round" stroke-linejoin="round"/>
        <path d="M26.8145 28.0367C30.0866 31.8928 32.9585 36.0714 35.3859 40.5082" stroke="#1CA953" stroke-linecap="round" stroke-linejoin="round"/>
    </g>
    <defs>
        <clipPath id="clip0_808_3188">
            <rect width="20" height="20" fill="white" transform="translate(20 21.6796)"/>
        </clipPath>
    </defs>
</svg>
