<svg width="36" height="35" viewBox="0 0 36 35" fill="none" xmlns="http://www.w3.org/2000/svg">
<path d="M18 0.700012C8.72145 0.700012 1.19995 8.22151 1.19995 17.5C1.19995 26.7785 8.72145 34.3 18 34.3C27.2785 34.3 34.8 26.7785 34.8 17.5C34.8 8.22151 27.2785 0.700012 18 0.700012ZM24.8337 14.462C24.8407 14.6055 24.8425 14.749 24.8425 14.889C24.8425 19.264 21.5157 24.3058 15.4292 24.3058C13.6307 24.3088 11.8696 23.7922 10.3577 22.8183C10.615 22.8498 10.8792 22.862 11.147 22.862C12.6975 22.862 14.1237 22.3353 15.256 21.4463C14.566 21.4327 13.8974 21.2042 13.3434 20.7927C12.7894 20.3811 12.3776 19.807 12.1655 19.1503C12.661 19.2445 13.1714 19.2247 13.6582 19.0925C12.9093 18.9411 12.2358 18.5353 11.7519 17.9439C11.2681 17.3526 11.0036 16.6121 11.0035 15.848V15.8078C11.4497 16.0545 11.9607 16.205 12.5032 16.2225C11.8011 15.7551 11.3041 15.0372 11.1138 14.2155C10.9235 13.3938 11.0543 12.5305 11.4795 11.802C12.3106 12.824 13.3472 13.6601 14.5219 14.2561C15.6967 14.852 16.9836 15.1947 18.2992 15.2618C18.1319 14.5518 18.2039 13.8065 18.504 13.1416C18.804 12.4768 19.3153 11.9297 19.9583 11.5855C20.6014 11.2412 21.3401 11.119 22.0598 11.2379C22.7794 11.3568 23.4396 11.7102 23.9377 12.243C24.6782 12.0965 25.3884 11.8249 26.0377 11.4398C25.7909 12.2065 25.2741 12.8576 24.5835 13.272C25.2394 13.193 25.88 13.0166 26.484 12.7488C26.0403 13.4136 25.4814 13.9938 24.8337 14.462Z" fill="#1DA1F2"/>
</svg>
