<svg width="31" height="31" viewBox="0 0 31 31" fill="none" xmlns="http://www.w3.org/2000/svg">
<g clip-path="url(#clip0_178_154)">
<path d="M30.4797 15.7807C30.4797 14.5516 30.3777 13.6547 30.1568 12.7245H15.7988V18.272H24.2267C24.0568 19.6507 23.1393 21.7268 21.1002 23.122L21.0716 23.3077L25.6114 26.7454L25.9259 26.7761C28.8144 24.1684 30.4797 20.3316 30.4797 15.7807Z" fill="#4285F4"/>
<path d="M15.7986 30.397C19.9275 30.397 23.3938 29.0681 25.9257 26.7761L21.1 23.122C19.8086 24.0023 18.0754 24.6168 15.7986 24.6168C11.7546 24.6168 8.32229 22.0092 7.09877 18.405L6.91943 18.4199L2.19894 21.9909L2.13721 22.1586C4.65196 27.0418 9.81745 30.397 15.7986 30.397Z" fill="#34A853"/>
<path d="M7.09883 18.4049C6.77599 17.4748 6.58916 16.4782 6.58916 15.4484C6.58916 14.4186 6.77599 13.4221 7.08184 12.492L7.07329 12.2939L2.29365 8.66547L2.13727 8.73818C1.10082 10.7646 0.506104 13.0401 0.506104 15.4484C0.506104 17.8568 1.10082 20.1322 2.13727 22.1586L7.09883 18.4049Z" fill="#FBBC05"/>
<path d="M15.7986 6.28004C18.6702 6.28004 20.6072 7.49252 21.7117 8.50576L26.0276 4.3866C23.3769 1.97824 19.9275 0.5 15.7986 0.5C9.81746 0.5 4.65196 3.85508 2.13721 8.73821L7.08178 12.492C8.32229 8.88775 11.7546 6.28004 15.7986 6.28004Z" fill="#EB4335"/>
</g>
<defs>
<clipPath id="clip0_178_154">
<rect width="30" height="30" fill="white" transform="translate(0.5 0.5)"/>
</clipPath>
</defs>
</svg>
