<svg width="20" height="20" viewBox="0 0 20 20" fill="none" xmlns="http://www.w3.org/2000/svg">
<path d="M10 10C9.08337 10 8.29865 9.67365 7.64587 9.02087C6.9931 8.3681 6.66671 7.58337 6.66671 6.66671C6.66671 5.75004 6.9931 4.96532 7.64587 4.31254C8.29865 3.65976 9.08337 3.33337 10 3.33337C10.9167 3.33337 11.7014 3.65976 12.3542 4.31254C13.007 4.96532 13.3334 5.75004 13.3334 6.66671C13.3334 7.58337 13.007 8.3681 12.3542 9.02087C11.7014 9.67365 10.9167 10 10 10ZM5.00004 16.6667C4.54171 16.6667 4.14948 16.5037 3.82337 16.1775C3.49671 15.8509 3.33337 15.4584 3.33337 15V14.3334C3.33337 13.8612 3.45504 13.427 3.69837 13.0309C3.94115 12.6353 4.26393 12.3334 4.66671 12.125C5.52782 11.6945 6.40282 11.3714 7.29171 11.1559C8.1806 10.9409 9.08337 10.8334 10 10.8334C10.9167 10.8334 11.8195 10.9409 12.7084 11.1559C13.5973 11.3714 14.4723 11.6945 15.3334 12.125C15.7362 12.3334 16.0589 12.6353 16.3017 13.0309C16.545 13.427 16.6667 13.8612 16.6667 14.3334V15C16.6667 15.4584 16.5037 15.8509 16.1775 16.1775C15.8509 16.5037 15.4584 16.6667 15 16.6667H5.00004Z" fill="#1CA953"/>
</svg>
