<svg width="20" height="20" viewBox="0 0 20 20" fill="none" xmlns="http://www.w3.org/2000/svg">
<path d="M11.5833 5.5C10.75 6.16667 10.1667 7.16667 10.1667 8.33333V8.5C9.83333 8.66667 9.5 8.75 9.16667 8.75C7.75 8.75 6.66667 7.66667 6.66667 6.25C6.66667 4.83333 7.75 3.75 9.16667 3.75C10.3333 3.75 11.25 4.5 11.5833 5.5M9.16667 11.4167C9.16667 11.0833 9.25 10.75 9.41667 10.4167H9.16667C6.83333 10.4167 5 8.58333 5 6.25C5 3.91667 6.83333 2.08333 9.16667 2.08333C10.9167 2.08333 12.4167 3.16667 13.0833 4.75C13.4167 4.66667 13.8333 4.58333 14.1667 4.58333C15.9167 4.58333 17.4167 5.66667 17.9167 7.16667C18.0833 6.91667 18.1667 6.58333 18.3333 6.25C16.9167 2.58333 13.3333 0 9.16667 0C5 0 1.41667 2.58333 0 6.25C1.41667 9.91667 5 12.5 9.16667 12.5V11.4167ZM16.5 10.4167H12.9167V8.33333C12.9167 7.66667 13.5 7.25 14.1667 7.25C14.8333 7.25 15.4167 7.66667 15.4167 8.33333V8.75H16.5V8.33333C16.5 7.16667 15.3333 6.25 14.1667 6.25C13 6.25 11.8333 7.16667 11.8333 8.33333V10.4167C11.3333 10.4167 10.8333 10.9167 10.8333 11.4167V14.3333C10.8333 14.9167 11.3333 15.4167 11.8333 15.4167H16.4167C17 15.4167 17.5 14.9167 17.5 14.4167V11.5C17.5 10.9167 17 10.4167 16.5 10.4167Z" fill="#1CA953"/>
</svg>
